# xmcd CD database file
#
# Track frame offsets:
#	150
#	19607
#	40670
#	54622
#	69310
#	82905
#	96205
#	110012
#	124512
#	139115
#	150295
#	164340
#	179837
#	193245
#	206847
#	219990
#	236452
#	250072
#	264390
#	278542
#	291440
#	315732
#
# Disc length: 4314 seconds
#
# Revision: 3
# Processed by: cddbd v1.5.2PL0 Copyright (c) Steve Scherf et al.
# Submitted via: CDex 1.51
#
DISCID=3810d816
DTITLE=Various Artist - Blue 45s
DYEAR=1998
DGENRE=Jazz
TTITLE0=Art Blakey's Jazz Messengers - Dat Dere (Pt.1)
TTITLE1=Don Wilkerson - Camp Meetin'
TTITLE2=Lou Donaldson - Funky Mama (Pt.1)
TTITLE3=Kenny Burrell - Wavy Gravy (Pt.1)
TTITLE4=Herbie Hancock - Blind Man, Blind Man (Pt.1)
TTITLE5=Freddie Roach - I Know
TTITLE6=Freddie Roach - Brown Sugar
TTITLE7=Donald Byrd - Brother Isaac
TTITLE8=Big John Patton - Fat Judy (Pt.1)
TTITLE9=Horace Silver - The Jody Grind (Pt.1)
TTITLE10=Lou Donalson - Rev. Moses
TTITLE11=Horace Silver - Psychedelic Sally
TTITLE12=Blue Mitchell - Fungii Mama (Pt.1)
TTITLE13=Jimmy Smith - Bucket
TTITLE14=Lonnie Smith - Move Your Hand (Pt.1)
TTITLE15=Bobbi Humphrey - Spanish Harlem
TTITLE16=Hank Mobley - The Turnaround (Pt.1)
TTITLE17=Lee Morgan - The Rumproller (Pt.1)
TTITLE18=Stanley Turrentine - Trouble (Pt.1)
TTITLE19=Joe Henderson - Blue Bossa
TTITLE20=Lou Donaldson - Alligator Boogaloo
TTITLE21=DATA
EXTD=YEAR: 1998
EXTT0=
EXTT1=
EXTT2=
EXTT3=
EXTT4=
EXTT5=
EXTT6=
EXTT7=
EXTT8=
EXTT9=
EXTT10=
EXTT11=
EXTT12=
EXTT13=
EXTT14=
EXTT15=
EXTT16=
EXTT17=
EXTT18=
EXTT19=
EXTT20=
EXTT21=
PLAYORDER=
